<svg id="Layer_1" data-name="Layer 1" xmlns="http://www.w3.org/2000/svg" viewBox="0 0 1498.7 315.75"><defs><style>.cls-1{font-size:240.41px;font-family:HiraMinProN-W3-83pv-RKSJ-H, Hiragino Mincho ProN;letter-spacing:-0.07em;}.cls-2{fill:none;}.cls-3{fill:#39c5f3;}.cls-4{fill:#16294f;}.cls-5{fill:#ee3854;}</style></defs><text class="cls-1" transform="translate(273.81 244.35)">FibonacciKu</text><path class="cls-2" d="M352.13,528.11c.62.47,1.22.95,1.8,1.45C353.34,529.06,352.74,528.58,352.13,528.11Z" transform="translate(-231.3 -334)"/><path class="cls-2" d="M353.93,529.56c.44.37.87.75,1.29,1.15C354.8,530.32,354.37,529.93,353.93,529.56Z" transform="translate(-231.3 -334)"/><path class="cls-2" d="M356.87,532.33l-.73-.74-.5-.48C356.06,531.5,356.47,531.91,356.87,532.33Z" transform="translate(-231.3 -334)"/><path class="cls-3" d="M399.3,339.24a2,2,0,0,1-2,2H397c-1.44-.06-2.88-.1-4.33-.1h-1.61l-1.52,0h-.5l-.56,0-.77,0-.69,0-.21,0h-.16l-1.09.07-.88.07-1.22.1-.4,0H383l-.8.09-.21,0h-.12l-.61.07-1.9.24-.69.1c-.58.08-1.15.17-1.73.27l-.76.13-1,.17-.67.12-.43.08-.43.09-.16,0c-.27.05-.54.1-.81.17h0c-.56.11-1.13.24-1.68.36h0l-.66.16-1.1.26-1.08.28h0l-.94.25-1.15.31h0l-1.15.34-.9.27-.6.18-.9.29-.76.26-.68.22-.67.24-.68.24h0l-.52.19-.74.28-.41.16c-.53.19-1.05.4-1.57.61l-.79.32c-.52.21-1,.43-1.55.66-.26.1-.52.22-.77.33l-.58.26-.58.26-1.15.54-.75.36-.75.37-.56.28c-.28.13-.55.28-.83.42-.54.28-1.09.56-1.62.86-.28.14-.55.29-.82.44l-.62.34-.67.39c-.23.12-.45.25-.67.38l-1.5.89-.07,0-1.4.87-1.27.82-.57.37-.57.38-.42.29c-.24.15-.47.31-.7.48s-.39.26-.57.4l-.65.45-.53.39c-.69.5-1.37,1-2.05,1.52l-.83.65-.14.11-.64.51-.59.48-.08.06,0,0-.52.42-.56.47-.46.39c-.3.25-.61.51-.9.77l-.86.76-.67.6-.87.8c-.36.33-.71.67-1.06,1l-.11.1-.19.18-.58.57h0l-.25.26q-.43.42-.84.84c-.19.18-.37.38-.56.57l-.55.58-.19.19-.89,1-.15.16c-.29.31-.58.63-.86.95s-.67.75-1,1.13l-.83,1c-.08.1-.17.2-.25.31-.26.3-.51.61-.77.92l-.09.11-.75.93-.05.07-.15.19c-.3.37-.59.75-.88,1.13l-.06.08-.91,1.2-.86,1.18-.05.08-.41.57-.41.58-.07.1-.81,1.2-.05.07-.72,1.08-.13.21c-.24.37-.48.74-.71,1.12a2.13,2.13,0,0,0-.16.25c-.24.37-.47.74-.69,1.12s-.43.71-.64,1.07l-.29.49h0c-.15.25-.29.51-.43.76l-.06.09-.3.54-.45.82-.19.34-.48.91-.51,1c-.37.72-.73,1.45-1.09,2.19-.17.36-.34.71-.51,1.08s-.35.75-.52,1.13-.27.6-.4.89-.27.62-.4.94-.19.45-.28.67c-.18.41-.35.83-.52,1.25s-.33.82-.48,1.24a.08.08,0,0,0,0,0c-.13.33-.25.64-.37,1a.14.14,0,0,1,0,.06c-.19.5-.37,1-.55,1.5l-.12.36c-.05.13-.09.25-.13.37s-.17.49-.25.73l-.39,1.17-.21.67c-.09.31-.19.62-.28.92,0,.09-.05.18-.08.26l-.27.92c-.05.17-.1.34-.14.51-.16.56-.32,1.12-.47,1.7-.11.43-.23.87-.33,1.31-.07.24-.13.49-.19.74s-.13.57-.2.86-.18.78-.26,1.18l-.21,1c0,.13-.05.26-.08.38l-.15.76-.09.47,0,.16-.15.86c-.06.29-.11.58-.16.88,0,.14-.05.29-.07.43l0,.21c-.05.3-.1.59-.14.89q-.17,1-.3,2.07l-.09.76v0l-.09.76c0,.14,0,.26,0,.4s-.05.44-.07.67-.05.45-.07.68l-.06.63c0,.3-.05.6-.08.9s0,.46-.05.69l0,.34V432c0,.39-.06.78-.08,1.17s0,.54,0,.81,0,.53,0,.8,0,.43,0,.64l0,.9c0,.21,0,.42,0,.62s0,.27,0,.4v.55c0,.32,0,.63,0,.95s0,.87,0,1.3c0,.24,0,.49,0,.72V441c0,.05,0,.1,0,.15v.23c0,.16,0,.3,0,.45,0,.31,0,.61,0,.92s0,.76.05,1.14h0l0,.63c0,.26,0,.53.05.79s.05.71.07,1.06c0,.15,0,.3,0,.45v0l.09,1c0,.05,0,.1,0,.15l.09.88.09.87c0,.29.07.57.1.86s.07.58.11.87c0,.12,0,.23,0,.34l.15,1.07h0l.18,1.21c.06.4.13.8.2,1.21l.06.33c0,.32.11.65.17,1s.13.73.21,1.09a2.93,2.93,0,0,0,.05.29c.07.34.14.69.22,1s.19.89.29,1.34c.05.25.11.5.17.75v.05a.44.44,0,0,1,0,.1l.09.38c.09.35.17.7.26,1.06s.21.8.31,1.2a.24.24,0,0,1,0,.08c.05.16.09.33.14.49s.08.33.13.49v0a.19.19,0,0,1,0,.07l.36,1.24c.1.36.21.73.32,1.09l.14.44c.1.34.21.67.32,1s.21.67.32,1,.26.77.4,1.16.25.71.38,1.07c0,.1.07.2.11.3.11.31.23.63.35.94s.29.76.44,1.14l.19.49.26.65c.15.38.31.76.47,1.13l0,.07c.14.35.29.7.44,1s.34.76.5,1.14l0,0c.16.36.32.71.49,1.07s.33.69.49,1,.46.95.7,1.42l.41.82c.19.36.37.72.56,1.07l.58,1.07c.13.26.27.51.41.76s.28.5.43.75.28.5.43.75.28.5.43.75l.24.39c.13.22.26.45.39.66l0,.07c.06.09.11.18.17.26a.41.41,0,0,0,0,.09l.32.52a.08.08,0,0,1,0,0l.21.33c.19.29.38.58.56.88l.32.48.32.49a.56.56,0,0,1,.05.08l0,0,.3.45.3.45c.46.68.93,1.35,1.41,2,.23.33.47.65.71,1l.71.95,0,0,.36.47a5.32,5.32,0,0,0,.36.47c.24.32.49.63.74.95s.5.63.76.94l.37.45.38.45,0,.06.16.18a.18.18,0,0,0,0,.07l.5.59,0,0,.06.07.14.16.31.36.32.37.78.87c.27.3.53.6.81.89s.53.57.79.85l0,0,0,0,.82.85c.56.58,1.13,1.15,1.7,1.71l.82.8.05,0,0,0c.33.32.65.63,1,.93l1,.94.76.68.57.5.18.16.22.19.43.37.81.68c.27.23.54.46.82.68s.55.45.83.67l.83.66,1,.74.25.19.66.49c.24.18.47.36.72.53l.37.27.71.51.11.08.59.41.09.06.76.53.21.14.8.54.57.37.52.34.77.49c.82.52,1.65,1,2.48,1.51l1.42.82.47.27,1.12.61.07,0,.29.16c.4.22.81.43,1.22.64l0,0,1.14.59.6.29.17.08c.29.15,1.2.65,1.36.76l.23.17.47.34.46.34c.61.47,1.21,1,1.8,1.45.44.37.87.76,1.3,1.15l.42.4.49.48.73.74.39.42c.14.14.26.28.4.43l.75.86c.25.3.5.59.74.89l.67.86.33.44c.11.14.21.29.32.44l.07.1,0,0c.22.31.44.62.64.93l.63,1q.62,1,1.17,2l.14.25.14.26c.18.34.35.69.53,1l.21.45.06.11c.08.16.15.33.22.5s.17.37.26.56.11.26.17.39l.27.66c0,.12.09.24.14.36v0a.14.14,0,0,1,0,.06v0c.09.23.18.47.26.7s.12.32.17.49a2.53,2.53,0,0,1,.12.33l.12.35c0,.14.09.29.14.43l.1.34c.06.18.11.37.17.55s.13.45.19.68.09.33.13.5.05.18.07.28a.29.29,0,0,1,0,.09l0,.06c0,.12.06.24.08.36.1.4.18.8.27,1.2,0,.1,0,.19.05.28a2.74,2.74,0,0,1,.05.28c.05.22.08.44.12.66l.09.53c0,.16.05.31.07.47s.05.41.08.62.05.41.08.61l.06.62,0,.32c0,.07,0,.14,0,.21s0,.11,0,.17,0,.12,0,.18l0,.37c0,.1,0,.2,0,.29v.13c0,.19,0,.37,0,.56s0,.26,0,.39v0c0,.16,0,.33,0,.49s0,.43,0,.64a39.47,39.47,0,0,1-39.47,39.47h-.35l-.75,0-.63,0h-.05l-.51,0H326l-.43,0-.67,0-.4,0h0l-.63-.07-.46-.05-.42-.06-.45-.07-.44-.07-.29,0-.28,0-.69-.13h0l-.34-.08h-.08l-.41-.08-.14,0h0l-.4-.09L319,598l-.24-.06-.15,0-.52-.14-1.4-.41c-2.79-1.12-5.52-2.34-8.21-3.64l-1.63-.8-.11-.06-.07,0c-.18-.08-.36-.18-.55-.28s-.55-.28-.83-.42l-.43-.22-.84-.44c-1.27-.68-2.54-1.38-3.79-2.09l-.91-.53-.92-.53-1.37-.83-1-.6c-.4-.24-.79-.49-1.18-.74l-.85-.54-1-.64-1-.66q-2-1.31-3.88-2.69l-.95-.69c-.64-.46-1.26-.94-1.89-1.41l-.93-.72c-1.25-1-2.47-1.94-3.68-3l-.81-.67-1.11-.95c-.56-.48-1.11-1-1.65-1.44l-.93-.83-1.68-1.55c-.55-.52-1.11-1-1.65-1.58l-.89-.87-.83-.83c-1.14-1.13-2.25-2.29-3.35-3.47l-.72-.78-.79-.87-.78-.88-.72-.82q-.45-.51-.87-1l-.67-.78-.8-1-.55-.67-.12-.15c-.19-.24-.39-.47-.57-.71l-.57-.72c-.38-.47-.75-1-1.12-1.43-.16-.2-.31-.41-.46-.61l-.09-.11c-.16-.2-.31-.4-.46-.61s-.46-.61-.68-.92c-.46-.62-.9-1.24-1.35-1.86l-.66-.93c-.22-.32-.44-.63-.65-.95l-.32-.47-.33-.48-.64-.95-.66-1c-.25-.39-.5-.77-.74-1.16h0v0a1.37,1.37,0,0,1-.13-.2c-.14-.22-.28-.43-.41-.65l0,0-.62-1-.59-1c-.19-.32-.38-.65-.58-1l-.45-.77-.53-.93-.41-.72-.5-.9-.58-1.07c-.18-.32-.35-.64-.52-1l-.12-.23c-.17-.32-.34-.64-.5-1s-.37-.7-.55-1.05c0,0,0,0,0,0l-.54-1.08c-.18-.36-.36-.73-.53-1.09l-.27-.55c-.09-.19-.18-.37-.26-.56-.18-.36-.35-.73-.52-1.1l-.51-1.12c-.17-.37-.33-.74-.5-1.12l-.24-.56c-.08-.19-.17-.37-.25-.56l-.48-1.13c-.15-.38-.31-.76-.47-1.14l-.45-1.14q-.24-.57-.45-1.14c-.15-.38-.3-.77-.44-1.15s-.21-.56-.31-.84a2.49,2.49,0,0,1-.11-.29.36.36,0,0,0,0-.09c-.27-.75-.54-1.5-.8-2.26l-.5-1.46-.48-1.47c-.11-.37-.23-.72-.34-1.09h0c0-.18-.11-.37-.17-.55l-.39-1.31c-.12-.4-.23-.8-.35-1.2s-.19-.68-.29-1l-.18-.66,0-.11-.21-.82c-.09-.33-.18-.66-.26-1s-.21-.81-.31-1.21l-.15-.61c0-.2-.09-.4-.14-.61s-.18-.73-.26-1.1-.13-.6-.2-.91-.14-.62-.2-.93-.14-.63-.2-.95-.12-.58-.18-.87l-.06-.27c-.06-.37-.14-.73-.2-1.1s-.16-.83-.23-1.24-.14-.78-.2-1.17l0-.13c-.05-.32-.11-.65-.16-1s-.12-.73-.17-1.09-.11-.74-.16-1.1l-.12-.82c0-.32-.09-.64-.13-1s-.1-.74-.14-1.11l0-.27c-.05-.38-.1-.76-.14-1.14s-.09-.85-.14-1.27c0-.23,0-.47-.07-.69,0-.05,0-.09,0-.14,0-.26-.05-.52-.07-.79l-.09-1-.1-1.24c0-.42-.06-.83-.08-1.25,0-.23,0-.46,0-.69s0-.53,0-.8,0-.84-.07-1.26,0-.83-.05-1.25c0-.82,0-1.63-.07-2.46s0-1.73,0-2.6c0-.44,0-.88,0-1.33v-.11c0-.25,0-.5,0-.74v-.16l0-1.29c0-.53,0-1.06.05-1.59v-.05c0-.44,0-.87,0-1.31,0-.22,0-.43,0-.65s0-.69.06-1l.06-1c0-.41.06-.81.08-1.22a.37.37,0,0,0,0-.11,0,0,0,0,1,0,0s0-.07,0-.11c0-.32.05-.63.07-.95,0-.05,0-.1,0-.16v-.09s0-.09,0-.13l0-.46h0c0-.48.09-1,.15-1.45s.07-.73.11-1.1c0-.05,0-.09,0-.14,0-.33.07-.67.11-1l.15-1.23c0-.13,0-.27,0-.4.06-.42.12-.85.17-1.27l.18-1.17q0-.41.12-.81s0-.05,0-.08c0-.33.1-.67.16-1a.69.69,0,0,0,0-.13c0-.32.11-.64.16-.95,0-.15,0-.3.08-.45l.12-.69s0-.06,0-.09c0-.24.09-.48.13-.73.07-.4.15-.79.23-1.19s.15-.74.22-1.11l0-.06c.08-.42.17-.84.26-1.25.14-.68.29-1.36.45-2,.09-.38.17-.76.27-1.13l0-.17c0-.2.09-.4.14-.59s0-.11,0-.17.06-.23.08-.34.1-.4.16-.6.09-.39.15-.59c.11-.44.23-.88.35-1.32v0c.13-.45.25-.9.38-1.35.43-1.52.88-3,1.37-4.53.06-.22.13-.42.2-.64s.08-.25.13-.37c.11-.37.23-.73.35-1.09a.36.36,0,0,0,0-.09c.15-.46.31-.91.46-1.36s.35-1,.53-1.45c.1-.29.2-.57.31-.85l.06-.18c.06-.14.1-.29.16-.42s.19-.49.28-.74c.31-.81.63-1.63,1-2.44.11-.27.21-.53.33-.79s.2-.5.31-.75c.19-.46.39-.92.59-1.38a.61.61,0,0,1,0-.12c.18-.42.37-.84.56-1.27,0-.05.05-.1.07-.16.13-.28.25-.57.38-.84.53-1.16,1.08-2.32,1.64-3.46l.48-1c.38-.78.78-1.56,1.19-2.32l.36-.7.16-.29.62-1.14.33-.62.09-.16.35-.61.12-.22.51-.9c.26-.45.53-.9.79-1.36s.42-.7.64-1.05l.58-1,.62-1,.63-1,.41-.64,0-.05c.36-.57.73-1.13,1.1-1.68s.69-1.05,1.06-1.56l.64-.93.05-.07c.44-.64.89-1.26,1.34-1.89l.3-.4,0,0,0-.05.08-.1.07-.1.17-.23.06-.08.65-.87c.48-.64,1-1.26,1.45-1.89l.52-.66.16-.21.75-.94.76-.93.76-.91c.25-.31.5-.61.76-.9.5-.6,1-1.19,1.54-1.78l.78-.88.78-.86.8-.87.3-.32.3-.32.72-.76.75-.79.59-.6.63-.64.58-.58.71-.7.41-.4,0,0,.89-.86.82-.77.14-.13.59-.55,1.74-1.59h0l.75-.67h0l.57-.5.58-.49c.18-.17.37-.33.56-.48.37-.33.74-.64,1.12-.95,0,0,.05-.05.08-.06l.65-.55.72-.58.72-.58.11-.09.1-.08,1.34-1.05.79-.61.94-.71.66-.49.08-.06,1.48-1.08.63-.45,1-.67,1-.67c1.19-.83,2.41-1.63,3.63-2.41l.77-.49.11-.07.11-.06.31-.2,1-.62.72-.43a.21.21,0,0,1,.1-.06c.13-.09.27-.17.41-.25l.4-.24c.13-.08.26-.16.4-.23l.71-.42.14-.08.47-.27.22-.12,1.05-.6.07,0,1.07-.59,1.45-.78.8-.43.12-.06.2-.1.9-.47,2.18-1.08.1-.05,1.6-.76.66-.31,1-.46.05,0,1.72-.77c.58-.25,1.15-.5,1.74-.74l.07,0h.05l.15-.07,1-.41.12,0,.91-.37.13-.05.73-.29.11-.05.51-.19,1.15-.44.17-.07.33-.12c.45-.17.89-.33,1.34-.48l1.36-.49.08,0,.87-.3h0l.89-.29.29-.1.4-.14,1.61-.51.93-.28.1,0,.31-.09.13,0,.31-.1h.05l.75-.22.14,0,.74-.21,1-.28.94-.26h0l.44-.12h0l1.22-.32.22-.05.44-.11.46-.11.6-.15.2,0,.76-.18,1.56-.36.28-.06,1.47-.3,1.24-.25.13,0,.67-.12.95-.18.67-.12.81-.14.81-.14.18,0,.77-.13.23,0,.38-.06,1.58-.23c.55-.08,1.1-.16,1.65-.22l.12,0,1.33-.16.16,0,.45-.05h.05c.81-.1,1.62-.18,2.43-.25a2.48,2.48,0,0,1,.27,0l.59-.05,1.55-.13,1.53-.11,1.38-.08.61,0c.66,0,1.32-.06,2-.09l1.23,0h.73l.74,0h2.3a137.07,137.07,0,0,1,29.7,3.24l.13,0A2,2,0,0,1,399.3,339.24Z" transform="translate(-231.3 -334)"/><path class="cls-2" d="M375.63,531.17h0Z" transform="translate(-231.3 -334)"/><path class="cls-4" d="M504.45,470.6A136.63,136.63,0,0,1,367.82,607.23c-2.69,0-5.35-.07-8-.23h-.12a1.09,1.09,0,0,1-1-1.08,1.08,1.08,0,0,1,.76-1h0l.15,0A40.5,40.5,0,0,0,391,565.42c0-.25,0-.5,0-.75l0-1c0-.09,0-.2,0-.3,0-.27,0-.55-.05-.82s0-.55-.06-.83,0-.3,0-.45-.05-.48-.08-.72l-.06-.49c0-.18,0-.36-.07-.54-.07-.48-.15-1-.24-1.42,0-.25-.09-.5-.14-.75s-.06-.26-.08-.39l-.09-.39c-.08-.36-.16-.71-.25-1.06s-.12-.48-.19-.72-.09-.34-.14-.51-.12-.42-.19-.63c0,0,0,0,0-.06-.12-.39-.25-.78-.38-1.17s-.29-.82-.44-1.22-.31-.8-.47-1.2c-.32-.76-.66-1.52-1-2.26-.06-.13-.12-.26-.19-.38-.19-.39-.39-.77-.6-1.15-.08-.16-.17-.32-.26-.48l-.18-.32-.2-.35a.05.05,0,0,1,0,0c-.13-.22-.26-.44-.4-.66s-.2-.33-.31-.49-.21-.33-.32-.5l-.16-.25c-.29-.44-.6-.89-.91-1.32l-.3-.41-.3-.4c-.3-.4-.62-.8-1-1.2q-.13-.18-.3-.36c-.1-.13-.21-.25-.32-.38-.64-.75-1.31-1.47-2-2.16l-.25-.25-.69-.66c-.2-.2-.41-.38-.61-.57l-.69-.61-.6-.5c-.46-.39-.94-.77-1.43-1.14h0l-.11-.08a1.1,1.1,0,0,1-.37-.81,1.09,1.09,0,0,1,1-1.09h.19l.85,0,1.8,0h1.1c.87,0,1.73,0,2.59,0l1.24,0h.46l1.11,0c.78,0,1.56-.09,2.33-.15l.55,0c.77-.06,1.53-.12,2.29-.2l.6-.06h0l.61-.07,1.05-.12.78-.1.79-.1.9-.13.54-.08.54-.08c.76-.12,1.51-.24,2.26-.38l1.1-.2.56-.11.86-.17c.28-.06.57-.11.85-.18l.85-.18.85-.19,1.1-.26.6-.15c.71-.17,1.42-.35,2.12-.55l.53-.14.8-.22,1-.28.61-.18c.32-.1.65-.19,1-.3s.83-.26,1.24-.39c.7-.23,1.4-.46,2.1-.71l.83-.29,1.51-.55.84-.32,1.79-.71.45-.18,2.13-.91,1-.43c.46-.2.91-.4,1.35-.61,1-.45,1.91-.91,2.86-1.39.26-.13.52-.26.77-.4.66-.33,1.31-.67,2-1l2.16-1.2.62-.35.7-.41,1.14-.69c.63-.38,1.26-.77,1.88-1.17l1.09-.7c.69-.45,1.38-.92,2.07-1.39l.68-.48.83-.58,1.26-.92c.45-.33.91-.67,1.36-1l.63-.48,1.12-.89.65-.51.64-.53.52-.42,1-.84.51-.44.47-.41c.64-.56,1.27-1.12,1.89-1.7.24-.2.46-.41.69-.63l.82-.77,1-1,.16-.16.88-.88c.35-.35.7-.7,1-1.06s.5-.51.74-.77c.77-.81,1.52-1.63,2.26-2.47.29-.31.56-.63.84-.95.48-.55,1-1.12,1.43-1.68l.32-.39.31-.39c.2-.23.39-.47.58-.71s.51-.64.76-1c.42-.53.83-1.06,1.24-1.61l.66-.89c.14-.18.27-.37.41-.56l.4-.56c.18-.24.35-.49.52-.73s.34-.49.51-.74q2.33-3.36,4.38-6.91l.46-.8c.57-1,1.1-2,1.63-3,.2-.36.38-.73.57-1.09.74-1.45,1.46-2.93,2.13-4.41l.33-.74c.43-.94.84-1.89,1.22-2.85a2.44,2.44,0,0,0,.1-.24c.29-.68.56-1.37.82-2.07.07-.17.13-.35.2-.52s.15-.39.22-.58l.21-.59c.17-.43.32-.87.47-1.31,0,0,0,0,0,0,.07-.2.15-.41.21-.61l.06-.15.18-.54c.19-.57.37-1.14.55-1.72s.28-.85.4-1.28.18-.58.26-.87.19-.65.28-1l.27-1c.11-.42.23-.84.33-1.27a.06.06,0,0,0,0,0,6,6,0,0,0,.15-.61.19.19,0,0,0,0-.08c.09-.33.17-.66.25-1s.19-.8.28-1.21c.15-.67.3-1.34.44-2,0-.18.08-.37.11-.56s.07-.36.11-.55.07-.37.11-.55c.13-.7.26-1.41.37-2.11.05-.23.08-.47.12-.7h0c.09-.53.17-1.07.24-1.6a.76.76,0,0,0,0-.16c0-.27.08-.55.11-.82s.08-.55.11-.83.07-.52.1-.78c.07-.58.14-1.15.19-1.73h0c0-.21.05-.42.07-.63l.06-.63c0-.43.08-.85.11-1.28s.05-.7.08-1.05l.06-.91,0-.53,0-.68c.05-.85.08-1.7.1-2.55,0-.24,0-.47,0-.71s0-.62,0-.93,0-.76,0-1.14a106.35,106.35,0,0,0-2.08-21,1.9,1.9,0,0,1,0-.41,2,2,0,0,1,3.83-1l.11.19.59,1.05.39.72c.13.23.27.47.39.71.23.42.44.83.66,1.25.15.27.29.55.44.83s.34.67.5,1,.43.85.64,1.27l.21.42c.07.14.13.28.2.41l.63,1.33.63,1.34.26.59c.16.34.31.68.47,1s.31.71.46,1.07.34.8.51,1.19l.54,1.3c.18.43.35.87.52,1.3l.4,1c.15.41.31.81.46,1.21l.37,1,.37,1.05c.09.24.18.49.26.73s.22.6.32.9.28.82.41,1.23.28.83.41,1.24.26.83.4,1.24l.3,1c.11.34.21.67.3,1s.12.41.18.61c.49,1.67.94,3.36,1.36,5.05.11.43.21.85.31,1.28s.21.85.3,1.28c.36,1.57.69,3.15,1,4.74,0,.21.08.42.11.64a2.21,2.21,0,0,1,.05.25c.1.49.18,1,.27,1.47,0,.11,0,.22.05.33s.08.49.13.74.1.66.16,1,.11.77.17,1.16.11.74.16,1.11c0,.09,0,.18,0,.27.06.42.12.84.17,1.26.11.89.22,1.78.31,2.67.05.44.1.89.14,1.33s.09.9.13,1.34,0,.66.08,1,.05.57.07.86l.06.87Q504.45,465.81,504.45,470.6Z" transform="translate(-231.3 -334)"/><path class="cls-5" d="M474.81,415.19q0,2.85-.15,5.67a104.46,104.46,0,0,1-100.81,98.71h-.09a2,2,0,0,1-2-2,2,2,0,0,1,.38-1.19h0l.2-.24h0a104.05,104.05,0,0,0,20.05-36.9,24.59,24.59,0,0,0,.78-2.7,0,0,0,0,1,0,0,26.17,26.17,0,0,0-.52-13.61c-1.3-4.17-3.85-8.66-10.29-13.8h0a55.37,55.37,0,0,1-17.56-30.33,56.25,56.25,0,0,1-1.12-11.16,55.4,55.4,0,0,1,55.42-55.42c1.44,0,2.87.05,4.28.16a55.08,55.08,0,0,1,27.8,10.07l0,0c1.88,1.45,3.73,2.95,5.53,4.5a55.41,55.41,0,0,1,15.22,24,104.1,104.1,0,0,1,2.55,16.41Q474.81,411.2,474.81,415.19Z" transform="translate(-231.3 -334)"/></svg>