<svg xmlns="http://www.w3.org/2000/svg" viewBox="0 0 1498.69929 315.75086">
  <defs>
    <style>
      .cls-1 {
        font-size: 240.41377px;
        fill: #fff;
        font-family: HiraMinProN-W3-83pv-RKSJ-H, Hiragino Mincho ProN;
        letter-spacing: -0.075em;
      }

      .cls-2 {
        fill: none;
      }

      .cls-3 {
        fill: #3cf;
      }

      .cls-4 {
        fill: #045b96;
      }

      .cls-5 {
        fill: #f36;
      }
    </style>
  </defs>
  <g id="Layer_1" data-name="Layer 1">
    <text class="cls-1" transform="translate(273.80884 244.34863)">FibonacciKu</text>
    <path class="cls-2" d="M344.62961,556.30408c.61669.46335,1.21669.94336,1.8,1.4467C345.843,557.25077,345.243,556.77076,344.62961,556.30408Z" transform="translate(-223.80071 -362.19055)"/>
    <path class="cls-2" d="M346.42964,557.75078c.44.37.87334.75334,1.29335,1.15C347.29965,558.51078,346.86965,558.12411,346.42964,557.75078Z" transform="translate(-223.80071 -362.19055)"/>
    <path class="cls-2" d="M349.36634,560.52081c-.24-.24666-.48-.49335-.72667-.73668-.16333-.16333-.33-.32667-.49667-.48666C348.563,559.69412,348.96967,560.10414,349.36634,560.52081Z" transform="translate(-223.80071 -362.19055)"/>
    <path class="cls-3" d="M391.80032,367.42811a2.03455,2.03455,0,0,1-2.00015,2.03221c-.08976-.00321-.1795-.00642-.27247-.00963q-2.154-.09617-4.33043-.09616c-.34618,0-.69237.00321-1.03855.00642-.16667,0-.33656.00321-.50323.0064h-.0609c-.50645.00962-1.01612.02244-1.52255.03846l-.26605.00963c-.08013,0-.15706.0032-.23719.00641-.18592.0064-.375.01282-.56094.02244-.25964.00961-.51606.01923-.77251.03526-.22757.0096-.45836.02244-.68274.03525-.07051.00321-.14423.00963-.21476.01282h-.02244l-.13461.00962c-.36542.02244-.73084.04809-1.093.07372-.2917.01923-.58658.04488-.87828.06732-.40707.032-.81416.06732-1.218.10578-.13783.00961-.26924.02563-.40388.03846-.04486.00321-.093.00961-.141.01282-.266.02565-.52888.05448-.79493.08334-.07051.00642-.14424.016-.21475.02244-.03846.00321-.08014.00961-.1186.01281-.20515.02565-.40388.04809-.60582.07053q-.95679.11058-1.904.24041c-.23079.032-.46478.06409-.69235.09936-.57377.08014-1.14752.16988-1.72129.26284-.25322.04165-.50965.08333-.76607.13141-.32375.05449-.64428.109-.968.16988-.22438.03527-.44234.08013-.66672.1218-.14425.02565-.28847.05451-.43272.08014-.14745.02886-.29488.05771-.43592.08655-.05451.01281-.10578.02244-.15708.032-.26924.05129-.5385.10578-.80453.16668a.05444.05444,0,0,0-.02244.00321c-.56415.11539-1.1283.2404-1.68282.36542a.13671.13671,0,0,0-.03525.00639c-.22117.0513-.44555.10258-.66672.15708-.36863.08333-.734.17308-1.09944.26282-.359.08656-.718.18271-1.077.27568-.0064,0-.0096.00321-.016.00321-.31412.08013-.625.16346-.93917.25-.38465.10257-.76609.20835-1.15072.31412l-.00962.00641c-.38786.109-.77249.22118-1.15713.33656-.30131.08976-.59941.1795-.8975.27247-.19873.0609-.39428.12181-.59622.1859-.29809.093-.5994.18912-.9007.28528-.25643.08334-.50964.16669-.76288.25643-.22436.07373-.45195.14745-.67633.22758-.22757.07693-.452.15386-.67633.234-.22758.08013-.45515.16027-.67953.24361-.01284.00321-.02244.00963-.03846.01283-.17311.06089-.34619.125-.51606.1859-.24682.08976-.49364.18592-.74046.27887-.13462.04809-.27566.10257-.41349.15706-.52887.19875-1.05135.40388-1.57382.61544-.26284.10257-.52248.20834-.78211.31733-.52248.21154-1.03854.43272-1.55462.65709-.26284.109-.51606.22118-.77248.33656-.19233.08335-.38465.1699-.58017.25964-.19233.08334-.38465.1731-.58017.26284-.38465.17629-.76609.3526-1.14753.53531-.25.1186-.49683.234-.74364.359-.25322.1186-.50325.24359-.75647.36861-.18912.08975-.375.1827-.56094.27886-.27565.13783-.55133.27887-.82378.4199-.54491.28208-1.08983.56736-1.62833.86225-.27245.13782-.5417.28849-.81094.43913-.21157.1122-.4167.22759-.625.34618-.22118.12823-.44876.25322-.67312.38144-.22117.125-.44555.25643-.66993.38465q-.75006.43752-1.4937.88789c-.02244.016-.04488.02884-.07052.04486q-.70677.42794-1.40075.86867-.63948.39907-1.27573.82057c-.19233.1186-.37823.24361-.56735.37181-.19232.125-.37823.25-.56736.37825-.14422.093-.28207.18911-.42309.28527q-.351.23557-.702.4808c-.19234.13464-.38144.26605-.57057.40388-.21475.14745-.42953.29489-.64107.452-.1795.1282-.35579.25321-.5385.38783-.68595.49683-1.3687,1.00649-2.04182,1.52255-.27886.21476-.55773.42953-.8334.64749-.04807.03526-.08974.07051-.13783.10578-.218.16988-.43272.343-.64747.51606-.19873.15706-.39428.31412-.58659.47439a.67336.67336,0,0,0-.07372.0609c-.01923.01282-.03206.02565-.04809.03847-.17308.13783-.34618.28207-.51926.42632-.18592.15064-.37184.30451-.55452.46157-.15708.1282-.30773.25963-.46158.39425-.30451.25324-.609.51287-.90391.77251-.28849.25-.57378.50324-.85585.75646-.22757.19873-.452.40388-.67312.60582-.29168.26284-.577.52566-.86545.79492-.359.33335-.71158.66993-1.06737,1.0097-.03528.03205-.06732.0673-.10579.09936-.06411.0641-.12822.12181-.19233.1859-.19231.18913-.38784.37823-.58017.56736l-.01282.01281c-.08655.08334-.17308.1699-.25642.25645q-.42792.41348-.8366.83659c-.18912.18592-.375.37823-.55775.57055-.18589.19233-.3686.38465-.55773.577-.0609.0673-.125.13462-.18589.19873-.30131.31412-.59622.63145-.8911.952-.04809.0513-.09937.10579-.14746.16027-.29168.31093-.577.63147-.86543.952q-.50487.56253-1.00007,1.13469c-.27568.31733-.55134.63786-.82378.9584-.08335.09936-.1699.20194-.25324.30451-.25964.30452-.51285.61222-.76607.92315-.02886.03846-.06411.07693-.093.11539-.25321.31093-.50324.61863-.74685.92956-.01923.02244-.03526.04486-.05128.06409q-.08173.09616-.15385.19234-.44236.55771-.87827,1.12508c-.01925.02563-.03848.05449-.0609.08014-.30451.40067-.609.80134-.90712,1.20841-.2917.38785-.57378.78211-.859,1.17317-.01923.02884-.03527.05449-.05451.08014-.141.19231-.27565.38464-.41027.577-.13783.19552-.27245.38785-.40709.58017l-.0673.09616c-.27568.39427-.54812.79494-.81738,1.19561-.01282.02242-.02884.04486-.04486.07051-.24041.359-.48081.718-.718,1.0802-.04165.07053-.08653.13783-.13462.20836-.2372.37182-.4776.74684-.71158,1.12188-.05451.08334-.10579.16666-.16027.25-.234.375-.46478.74685-.68916,1.12508-.218.35259-.42632.70519-.63466,1.06419-.09936.16347-.19552.33014-.28849.49362v.00321c-.15064.25-.29489.50324-.43913.75646-.016.02885-.03526.0609-.05128.093-.10257.1795-.20515.359-.30451.5385-.15386.26924-.30131.54171-.44876.81416-.06411.11539-.12821.234-.18911.34939-.16348.30131-.32374.5962-.4808.90071-.1699.32054-.33977.64749-.50646.97122-.375.72441-.73723,1.45845-1.093,2.19568-.16989.35579-.33977.71158-.50645,1.07379-.1795.375-.35579.75646-.52569,1.1379-.13462.2981-.26605.59622-.39425.8911-.13783.31091-.27247.61864-.40388.93276-.09616.22438-.19231.44876-.28528.66993-.17308.41669-.34619.83338-.51285,1.25329-.16669.41029-.33016.82378-.48722,1.24047a.16107.16107,0,0,0-.016.04167c-.125.32375-.24682.64107-.36541.96482a.42874.42874,0,0,1-.02244.05769q-.28367.75006-.54811,1.50653c-.04488.1186-.08655.24361-.12822.36221-.04167.1218-.08334.24361-.125.36862-.08653.24359-.16988.4872-.25.72761-.13143.39106-.25964.78211-.38786,1.17317-.07051.22117-.13783.44553-.20835.6667-.09616.30773-.19553.61545-.28527.92-.02565.08974-.05129.17629-.08013.26282-.08976.30131-.1795.60582-.26605.91354-.04809.16988-.09937.33977-.14746.50965q-.24039.84141-.46157,1.69886c-.1186.43592-.23078.87185-.33656,1.311-.06411.24682-.125.49683-.18271.74686-.07051.28207-.13783.57054-.20513.85582-.08976.39426-.1795.78532-.26284,1.18278-.07053.31733-.141.63787-.20194.9584-.02885.125-.0545.25643-.08013.38144-.0513.25324-.10578.50646-.15066.75967-.03205.15706-.06412.31414-.08974.4712-.00963.05449-.02565.10576-.03207.16027-.05448.28207-.10576.56734-.15385.85262-.05449.29489-.10578.58659-.15385.88147-.02886.14425-.0513.2917-.07374.43593-.01281.07053-.02242.13785-.03525.20836-.04807.29809-.09616.593-.13783.88789-.109.68593-.20515,1.37509-.29489,2.06746-.03206.25-.06732.50323-.09616.75967,0,.0064-.0032.01282-.0032.01923-.02886.25643-.06412.51285-.08976.76928-.016.13143-.02884.25963-.04488.39106-.02563.22438-.04807.44554-.07051.67312-.02565.22759-.04809.452-.06732.67954-.02563.21156-.04486.4199-.06091.63468-.02883.29488-.05448.59619-.07692.89749-.01923.22757-.03526.45837-.0577.68915-.00641.11219-.016.23079-.02244.343-.0032.03207-.0032.07053-.00639.10258-.02565.39425-.05451.78531-.07374,1.17636-.016.26605-.02884.5385-.04167.80455-.01281.26926-.02884.5385-.03846.80776-.00961.20833-.016.42311-.02244.63465-.00961.30131-.01923.60261-.02563.90392-.00642.20515-.00963.41669-.016.62184-.00319.13141-.0064.26284-.0064.39107-.00321.18589-.00642.37181-.00642.55773-.00642.31732-.00642.63144-.00642.94877,0,.43274.00321.86866.00963,1.29819.00321.2404.00642.4872.00961.7244a.62207.62207,0,0,1,.00641.109c0,.04809.00321.09615.00321.14424,0,.08014.00321.15706.00642.2372.00319.15064.0064.29809.01281.44874.00642.30451.016.609.02886.91673.01281.37825.03205.7565.05128,1.13471v.00321c.0096.21152.02244.41671.03525.62823.01283.26608.03207.53211.04809.79814.02244.35262.04488.702.07372,1.05137.00962.15385.02244.3077.03525.45517a.07952.07952,0,0,0,.00321.02884c.02244.33658.05448.67633.08655,1.01291.00321.04808.00642.09934.01281.15064.02886.28849.05451.58015.08335.87185.032.2917.0609.58019.093.87189.03527.28845.06732.57694.10257.86543q.0481.43268.10578.86543c.016.11864.02886.23078.04488.34621.04807.35579.09937.70837.14744,1.06095v.00321c.05771.40388.1218.80776.1827,1.21164s.12823.80455.19874,1.20522c.016.109.03527.22115.0545.33012.05449.327.11539.6507.17629.97445.06411.36221.13141.73083.20515,1.093.016.09293.03525.18589.05769.28207.06412.34617.13783.69875.21155,1.045.093.44552.19233.8911.2917,1.33662.05448.25323.11218.50647.17308.7565l.00963.048c.00639.03529.016.0673.02242.10259.03206.125.0609.25.08976.37179.08334.35263.16987.70842.25963,1.061.10258.40067.20515.80134.31091,1.202.00642.02888.01284.0513.01923.07693.04488.16668.08976.33016.13464.49363.04167.16348.08653.33017.13462.49364l.00321.0128c.00642.02242.01282.0513.01923.07375.11539.41347.234.82694.35259,1.24044.10578.36225.21477.72762.327,1.08662.04167.15069.08976.29491.13783.44555.10257.33337.20515.66675.31412,1.00008.109.33016.21477.66349.327.99365.13143.39105.25963.77571.39746,1.16359.125.359.25.71479.38144,1.07054q.04811.14909.10578.29812c.11218.31416.23078.62828.3494.9424.14422.38142.29168.76284.43913,1.14109l.19231.49043c.08976.218.1763.43271.26285.64749.15385.38142.30451.75646.46478,1.13146.00961.02567.02244.04813.032.07055.14425.35258.2917.69558.44556,1.04174.16347.375.33335.75646.5,1.13467.00642.01284.00961.02246.016.0353.16027.35575.32375.70837.49043,1.06416.16027.34938.32694.69558.49362,1.045q.34138.71158.69235,1.41358c.13785.27245.27887.54811.41672.82055.18589.359.37181.72121.56094,1.077.18589.35583.38144.71158.57375,1.07062.13783.2532.27245.50644.41669.75643.13783.25323.27887.50326.42311.75329.141.25.28208.5.42953.75.14423.25.28847.49685.43593.74363.07692.13147.15706.26607.23719.39746.13141.218.26284.44238.39425.65712.01284.02566.02565.04488.03847.0673.05771.08655.1122.17631.16347.26286.01923.02888.03526.05767.05451.08334.10576.17631.21475.35579.32372.52889.00642.00959.01284.02243.01924.03205.07052.109.141.22115.21156.33016.18271.29166.37181.58657.55773.88148.10578.16027.20836.32053.31733.484.10257.16027.21156.32375.31733.484.01923.02563.03527.05768.05769.08335.00321.00641.00963.01279.01284.01921l.29809.452c.10258.15385.20515.30128.30772.45192.46158.67637.92955,1.34949,1.41035,2.01619.2308.327.468.65391.7084.97765.234.32054.47438.64108.71158.95841.00962.00962.016.01925.02565.02883.1218.15706.23719.31412.359.47122.11538.15385.234.31091.359.46476.24362.31733.49364.63466.74365.94878s.5.62824.75646.93915c.1186.15389.24361.30132.36863.452.1282.15385.25321.30449.38144.45513a.52722.52722,0,0,0,.03846.05126c.05449.06413.109.12826.16027.18914.016.02246.03846.04488.05448.0641.16669.202.33337.39425.50325.593a.13455.13455,0,0,1,.016.02242.54573.54573,0,0,1,.0577.06413c.04488.05447.093.10893.13784.16027.10577.125.21155.24361.31412.36538.10258.11863.20834.24361.31733.3622.25964.29491.51927.58657.78211.87831.26605.29808.53529.59616.81095.88785.26284.28849.52568.56736.79173.84943a.161.161,0,0,1,.02244.02567l.01924.01921c.266.28529.5417.57374.82057.85585q.83659.87023,1.69563,1.70845c.26926.26924.54492.5321.82057.79492a.60476.60476,0,0,0,.04488.04488c.016.01283.02886.02884.04488.04167.327.31733.65389.62824.98405.92957q.50484.476,1.0193.93915c.25.22436.5.44875.75326.67636.18912.17306.38144.33975.57377.50323l.18269.16343c.07374.06093.14745.12506.22117.18594q.20677.18752.42311.36542c.26926.23077.5385.46159.81418.68595.26924.23078.5417.45514.81736.67954s.55131.44875.827.66991c.27887.21794.55773.43913.8366.66032.31732.25.63786.49364.96161.73721.08334.06413.16347.12822.24681.19231.21476.16348.43593.33017.6571.49044.23719.17951.47439.35583.718.52889.125.09293.24682.18269.37181.26924.2372.1731.4712.343.7084.50968.04167.02884.07692.05447.11859.08334.19232.13781.39107.27562.5898.41026.02884.01925.05448.04167.08653.06092.25.17631.50325.34938.75648.52244.07051.04813.14423.09617.21155.14426.26926.17948.53529.359.80134.53531.18591.12819.37823.25.56735.375.17309.11221.34938.22439.52567.33657.25644.1699.51287.33338.76929.49364q1.22605.77409,2.481,1.51293.7068.41348,1.41677.81738c.15708.09293.31735.17948.47441.266.3686.20836.74044.41347,1.11225.61224a.80914.80914,0,0,1,.07053.04163c.09616.0513.19552.1058.29168.16027.40388.21477.811.42954,1.218.63786l.03847.01925c.38143.20194.76608.39426,1.14752.58661.19873.10255.39746.19869.593.29487.05769.02567.11538.05767.16987.08334.2917.14423,1.1988.64428,1.35907.75967.07374.05451.15387.109.2308.16669.16027.109.31733.2244.47118.33975.15387.11542.31093.2276.46478.343.61222.468,1.21164.94878,1.7982,1.44883.43914.3718.87187.75967,1.295,1.14751.13782.13464.27886.266.4199.39746.16666.16027.33335.32375.49682.48722.24682.24361.484.49043.72442.73721.13462.13785.266.27891.39746.41993.13141.14422.25964.28207.39105.42633.25644.282.50966.57374.75967.86544.25.29487.49364.58977.73725.8911.22436.282.44874.57056.66991.859.109.14744.218.2917.32695.43914.109.14105.21476.28849.31733.43913.02886.03209.05128.07051.07693.10259a.04976.04976,0,0,0,.01923.02563c.218.30774.43273.61866.63786.93278.21477.32053.42311.64428.62826.97123.41348.65708.80134,1.32378,1.17315,2.00335.04809.08655.09618.1699.13785.25641.04807.08334.093.16989.13783.25644.1795.343.35579.69237.52887,1.04175.07374.15064.14746.29811.218.44876a.54967.54967,0,0,0,.0545.10576c.07693.16669.15385.33333.22436.5.08655.18914.1699.375.25324.56414.05769.13144.11539.26287.16987.39426.093.22119.18271.436.26926.65711.04809.1186.09616.24041.141.359.00642.00963.0096.01921.016.02884.00642.02246.016.04171.02244.06092a.04538.04538,0,0,0,.00642.01921c.08974.234.17629.47118.26284.70521.06088.16027.11539.32053.16988.4808.04167.109.08013.218.11538.33333.04168.11543.08014.23082.1186.34942.04488.141.093.28845.141.43592.03527.109.06732.2244.10578.33654.05769.18273.109.36546.16348.55452.06732.22119.1282.4488.1891.67637.04809.16348.08976.33016.13143.49685.02565.09293.04807.18589.07051.282.00963.02888.01923.06413.02565.093.00321.01925.00963.03846.01281.05768.02886.11863.05772.24361.08656.36224.09294.39746.1795.79813.26284,1.202.01923.09293.03846.1859.05448.27883.01924.08976.03528.18273.0513.2789.04486.218.08013.4391.1186.65708.032.17631.0609.35258.08653.5321.02565.15385.04809.31091.07053.468.02885.20515.05448.4103.08334.61545.02565.20515.04807.41025.07372.61544.02244.20511.04488.41347.0609.61862.00963.11221.02244.21794.03205.32374.00641.0673.01283.13781.016.20515.0064.0545.0096.11218.01281.16985s.00963.11864.01282.17952c.00962.12181.01923.25.02885.37184.00642.09613.01282.19873.016.2949.00321.03843.00321.08014.00641.12177.00961.18914.016.375.02244.56415.0064.13143.01282.26286.016.39425v.02567c.00321.16348.00641.327.0096.49364.00321.21473.00642.42309.00642.63786a39.46743,39.46743,0,0,1-39.46766,39.47084c-.1186,0-.234,0-.35259-.00638-.24682-.00321-.49682-.00642-.74364-.01284-.21157-.00641-.42311-.01279-.63147-.02242a.31059.31059,0,0,1-.05449-.00321c-.16987-.0032-.343-.01283-.50964-.02245-.04167-.00321-.08334-.00321-.1218-.00642-.14746-.00963-.2917-.02242-.43595-.03205-.22436-.01279-.44874-.032-.67312-.05129-.13141-.00959-.25963-.02563-.391-.03843H317.032c-.21475-.01925-.42632-.04171-.63144-.06734-.15706-.01921-.31094-.03525-.46479-.0545-.13782-.016-.27565-.03843-.41348-.05447-.14746-.02246-.29812-.04167-.44876-.0673-.15066-.01925-.29489-.04171-.44555-.07051-.093-.01283-.19232-.02887-.28847-.04492-.093-.01279-.18592-.032-.28208-.05125-.23079-.03851-.46157-.08014-.68916-.125-.016-.00321-.02565-.00321-.03846-.00642-.11218-.02242-.22759-.04487-.33977-.0705-.00641,0-.01281-.00321-.01923-.00321-.01923-.00321-.04488-.00963-.06411-.01284-.13141-.02883-.26924-.05771-.40709-.08334-.04486-.00959-.08974-.02242-.13462-.032l-.0096-.00321a.139.139,0,0,1-.01605-.00321c-.13462-.02884-.26924-.05768-.40067-.08976-.14743-.03205-.29489-.07051-.44232-.10576-.08013-.01922-.15708-.04168-.23721-.06093-.04807-.01279-.09937-.02242-.14744-.03521-.1731-.04492-.34939-.08976-.51926-.13785-.4712-.125-.93917-.266-1.404-.4103q-4.17819-1.6828-8.209-3.63808c-.54169-.26607-1.08661-.5321-1.6251-.80134-.04168-.01925-.077-.04167-.1186-.06088a.55477.55477,0,0,1-.0609-.03209c-.18913-.08976-.36863-.18269-.55455-.282-.27565-.13468-.55452-.27891-.827-.42313-.14745-.07051-.2917-.14744-.43594-.22436-.28207-.14427-.55773-.2917-.83339-.43917-1.27573-.67629-2.54506-1.37191-3.79516-2.08991-.30449-.17306-.609-.34933-.91352-.52564s-.609-.35583-.91033-.53531c-.46158-.27566-.91673-.54811-1.3751-.82377-.32695-.202-.65709-.40067-.984-.60265-.391-.24357-.78211-.49039-1.17315-.73721-.28208-.17948-.56736-.3622-.84943-.54493-.33014-.21153-.66031-.42626-.99045-.64107-.33016-.21795-.65711-.43589-.984-.65387q-1.96168-1.31259-3.87529-2.68931c-.32054-.23078-.63787-.46155-.952-.69554-.63788-.46159-1.26612-.93277-1.89117-1.41041-.31412-.23719-.625-.47117-.93275-.71479q-1.86554-1.44242-3.67657-2.94892c-.27245-.21794-.5417-.44555-.80776-.67311-.37181-.311-.74683-.62828-1.11546-.94882-.55452-.4776-1.10264-.95519-1.64756-1.44241-.31091-.27562-.61863-.55132-.92633-.83014-.56415-.51289-1.12509-1.03216-1.67963-1.55143-.55773-.51927-1.11225-1.04495-1.65717-1.577-.2981-.28532-.58978-.577-.88789-.86548-.27887-.27565-.55453-.55452-.83339-.83017q-1.702-1.70688-3.34319-3.47465c-.24361-.25961-.484-.51923-.718-.77888-.26926-.28849-.5321-.58019-.79174-.86864-.26284-.29491-.52247-.58661-.78211-.88148-.24361-.27248-.484-.54814-.72441-.8238-.29489-.33658-.58336-.67312-.86865-1.01286-.22758-.25966-.44875-.52252-.66672-.78534-.27244-.31733-.53529-.63787-.79813-.9584-.18271-.22119-.36542-.44235-.54812-.66671-.04168-.0545-.08335-.10259-.125-.15706-.19233-.23719-.38465-.468-.57377-.70841-.18911-.23719-.37823-.47439-.56734-.71479-.375-.47759-.75006-.952-1.11869-1.436-.15706-.20193-.31091-.40387-.46476-.60581-.02886-.03847-.0545-.07372-.08334-.11218-.15706-.20194-.30772-.40388-.46157-.61224-.2308-.30449-.45837-.609-.68275-.91994-.45516-.61223-.90071-1.23406-1.34305-1.85588-.22438-.311-.44555-.62507-.6603-.936-.22117-.31412-.43914-.62824-.65391-.94556-.11218-.15706-.218-.31733-.32372-.47118-.109-.15706-.218-.31733-.32375-.4776-.21475-.31733-.42632-.63466-.63786-.95519-.22118-.33658-.44555-.67637-.66673-1.01612-.25-.38463-.49682-.76929-.74043-1.16034-.00642-.00321-.00963-.00962-.01282-.01283l-.00962-.0128c-.04168-.06734-.08335-.13785-.125-.20194-.13783-.218-.27566-.43275-.40707-.64749-.00641-.01283-.01283-.02246-.01923-.03525-.21156-.33658-.41671-.67312-.625-1.01291-.19873-.31733-.39427-.64107-.58659-.96482-.19552-.32374-.38464-.64749-.58017-.97444-.15066-.25641-.3013-.51281-.44875-.76926-.1795-.3077-.3558-.61865-.5353-.92635-.13462-.2404-.27244-.48081-.40387-.72121-.16988-.29811-.33656-.5994-.50325-.90069-.19873-.35583-.391-.71162-.58338-1.06741-.17629-.32053-.34616-.64107-.51606-.96161-.03846-.07692-.08334-.15385-.1218-.23077-.16988-.32054-.33656-.64108-.50325-.96482-.18269-.34941-.36219-.70517-.5417-1.05779-.00961-.016-.016-.02884-.02563-.048-.1795-.35583-.359-.71483-.53531-1.07383-.1795-.36537-.36219-.73083-.5385-1.09941-.08974-.18273-.17629-.36542-.266-.54811-.08655-.18273-.17631-.37187-.26285-.55456-.1731-.36542-.34618-.73721-.51606-1.10584-.16989-.375-.33978-.74362-.50966-1.1155-.16668-.37179-.33335-.74362-.49682-1.11866-.08335-.18911-.16348-.375-.24682-.56415-.08014-.1859-.16348-.3718-.24361-.56094-.16027-.375-.32054-.75-.48081-1.13147-.15706-.375-.31412-.75325-.468-1.1315-.15387-.38146-.30772-.76288-.45838-1.14109-.15386-.38146-.3045-.76292-.44874-1.14754-.14746-.37822-.29489-.76288-.44235-1.15072-.10257-.27566-.20514-.55135-.30772-.83339-.03846-.09617-.07372-.19235-.11218-.28849-.00962-.02883-.01923-.06413-.032-.093-.27247-.75-.54492-1.50329-.80455-2.25975q-.25-.73085-.49685-1.46488c-.16346-.49043-.32373-.97765-.48081-1.468-.11538-.36542-.22756-.72121-.343-1.08342a.13877.13877,0,0,1-.00321-.016c-.05451-.18269-.1122-.36538-.1699-.5481-.13141-.43593-.266-.87827-.39425-1.3142-.1186-.40067-.234-.795-.34939-1.19242-.09937-.33975-.19232-.68271-.28847-1.0257-.06091-.22115-.12181-.44234-.1795-.66033l-.02886-.10576c-.07372-.27245-.14743-.54169-.218-.81734-.08974-.33017-.17629-.66354-.25964-.99691-.10578-.40067-.20835-.80455-.30451-1.2116-.05128-.20194-.09937-.40388-.15064-.60581-.04488-.20194-.09616-.40388-.141-.60582-.08655-.36863-.17629-.73721-.25963-1.10909-.06732-.29807-.13464-.59936-.20194-.90068-.07053-.31091-.13783-.625-.20194-.936-.06732-.31412-.13462-.62824-.20194-.94557-.0609-.29166-.11539-.5834-.17629-.87506-.016-.093-.03526-.18273-.05451-.27245-.0673-.36221-.141-.72762-.20834-1.09625-.08013-.4135-.15385-.827-.22758-1.24047-.07051-.38467-.13783-.77571-.20194-1.16676-.00961-.04167-.016-.08655-.02563-.12818-.05451-.327-.109-.65391-.16027-.98086-.05771-.36542-.1186-.73084-.1731-1.09625-.05449-.36863-.11218-.734-.16027-1.09946-.04167-.27241-.08013-.5449-.1186-.81414-.04167-.32053-.08655-.64107-.1282-.96481-.0513-.36863-.09937-.73721-.141-1.11226-.01283-.08976-.02244-.17948-.03206-.26924-.04807-.38146-.09616-.75971-.13462-1.14113-.0513-.42313-.093-.84622-.13783-1.26931-.02565-.23077-.04488-.46159-.07053-.68916-.00321-.04809-.00961-.08976-.01281-.13785-.02565-.26282-.04809-.52243-.07372-.7853-.03207-.33657-.05769-.66994-.08976-1.00648l-.09616-1.24048c-.02885-.4135-.0609-.83018-.08655-1.24689-.016-.22757-.02884-.45839-.04167-.686q-.02885-.40386-.04807-.80776c-.02244-.41668-.04167-.83656-.06411-1.25327-.01923-.41992-.03525-.83664-.04809-1.25652q-.04806-1.22121-.07051-2.45211c-.016-.86543-.02244-1.73087-.02244-2.60276,0-.44234.00321-.88464.00642-1.327v-.11218c.00319-.25.0064-.5.00961-.74684,0-.0545.0032-.10259.0032-.15706.00642-.42955.016-.85585.02565-1.28535.01282-.5321.02884-1.06421.05128-1.58985a.31093.31093,0,0,0,.00321-.05451c.016-.43592.03525-.87189.05448-1.311.01284-.21477.02244-.42955.03207-.64428.01923-.343.03846-.69237.0609-1.03533.01923-.33658.03847-.67.06409-1.00332.02565-.40388.05451-.80776.08335-1.2116.00321-.03846.00641-.07375.00962-.11539a.07057.07057,0,0,1,.00321-.02566.702.702,0,0,0,.00961-.11539c.02244-.31412.04809-.63145.07371-.94557.00642-.0513.01284-.10576.01605-.16027a.787.787,0,0,0,.00639-.08976c.00321-.04167.00963-.08655.01284-.12822.01281-.15385.02563-.30449.03846-.45834v-.00321c.04488-.484.08974-.96482.141-1.44883.03525-.36542.07692-.73725.11539-1.10263.00962-.04813.01281-.093.01923-.14106.032-.33337.07371-.6667.11218-1.00007.04809-.4103.09617-.82059.15066-1.22768.016-.13139.032-.26924.05128-.40388.0545-.41988.1122-.843.16989-1.26289.05449-.38784.11218-.77889.17308-1.16993.03526-.27249.07693-.54494.12181-.81739a.54976.54976,0,0,1,.01283-.07692c.05128-.33337.10256-.67.15706-1.00332.00961-.04484.016-.08651.02244-.13139.05128-.31733.10577-.63466.16027-.94557.02242-.15064.05128-.29812.07693-.44559.04167-.23078.08013-.46476.1218-.69554.0064-.02884.00961-.05767.016-.08655.04168-.24361.08974-.484.13462-.72762.07053-.40067.14746-.79814.22759-1.1956.07372-.375.14744-.74363.22438-1.11225a.33725.33725,0,0,1,.01282-.06088q.125-.62508.25963-1.25012.22117-1.0145.45516-2.029c.08655-.37823.1731-.75327.26605-1.1315l.03846-.16348c.04809-.19873.093-.39746.14425-.593.01281-.0577.02564-.1122.03846-.1699.02884-.11218.05769-.22756.08655-.33976.05128-.19553.09937-.39747.15064-.5962s.09937-.39425.15385-.593c.1122-.44234.2308-.88148.3494-1.32061.00321-.01283.00321-.02244.00641-.03527.125-.452.25-.90392.37823-1.35587q.64426-2.28383,1.36229-4.52918c.0673-.21475.13461-.42311.20514-.63466.03847-.125.08333-.25323.125-.37823.11859-.36541.23719-.72441.359-1.08341.01283-.03526.02244-.06411.03206-.093.15385-.45516.31091-.9071.468-1.35907.1699-.484.34619-.97122.52248-1.45523.10257-.28207.20515-.57056.31093-.84943.02244-.0609.04167-.1186.06411-.17629.05449-.14425.10256-.28528.15706-.42311.093-.24361.1859-.49041.27887-.734q.47118-1.22605.96481-2.43928c.10577-.26926.21155-.5321.32694-.79815.09936-.25.20194-.49683.31093-.74684.19231-.45836.38465-.91994.58659-1.3783.016-.04167.032-.08014.05127-.12181.18271-.42311.37182-.843.56094-1.26612.02244-.05449.04809-.10578.07051-.16027.125-.28207.25324-.56736.38144-.84622q.79333-1.74051,1.63475-3.45537c.16027-.32375.32053-.6507.484-.97445.38463-.7789.78211-1.55138,1.186-2.32068l.36863-.69877c.05129-.09936.10578-.19233.15706-.28849.20514-.37823.40708-.75967.61544-1.13469.109-.20836.22115-.4103.33656-.61863.02884-.05449.05769-.10579.08974-.16027q.1683-.30773.34618-.61543c.03847-.07373.08014-.14424.1186-.218.16989-.29809.33977-.5994.51285-.8975.26284-.45515.52569-.90391.79174-1.35907.20835-.35258.4199-.702.63465-1.05456.19234-.32374.38786-.64428.58659-.96481.20194-.33656.40709-.66993.61863-1.00329.20836-.33335.41991-.66672.63147-.99686.13462-.21477.27245-.42311.40707-.63786a.48848.48848,0,0,0,.03525-.0513q.54332-.84623,1.10265-1.6764.51447-.78852,1.05779-1.561c.21154-.31093.4263-.62184.64426-.92957.016-.02244.03206-.04808.04809-.0705.44234-.63468.8911-1.25973,1.343-1.88476.09616-.13464.19553-.27247.29489-.40388a.22872.22872,0,0,1,.01923-.02886c.01284-.016.02244-.032.03528-.04807a1.025,1.025,0,0,0,.07372-.10257c.02883-.03525.05127-.06732.07692-.10257.0577-.07693.109-.15067.16669-.22438a.58.58,0,0,1,.0609-.08014c.21475-.29488.43272-.58338.65068-.87185.47441-.63788.9584-1.26612,1.44883-1.89438.16987-.21475.343-.43592.51606-.65389.0513-.07052.10578-.13782.16027-.20835.25-.31733.50324-.62824.75646-.94238s.50645-.625.75967-.93275.50645-.61224.75969-.91354c.25-.30131.50322-.60259.75646-.8975q.75968-.8943,1.53857-1.77577c.25643-.29489.51606-.58659.7789-.87826.25964-.2917.52248-.58338.78853-.86867.26284-.29168.52568-.577.79171-.86545.09937-.10576.20194-.21475.30131-.32374.10257-.109.20194-.21476.30451-.32054.234-.25322.47439-.50643.718-.75967.25-.266.5-.52567.75327-.7853.19232-.19875.38784-.40067.58336-.59942.20836-.21475.41991-.4263.63468-.63786.19231-.19553.38465-.38784.58017-.58018.234-.234.47118-.468.70837-.702l.41351-.40388.03525-.03525c.2981-.29168.5994-.577.89429-.86225.27247-.25963.54492-.51606.81739-.77248.04486-.04167.09615-.08976.14422-.12823.19554-.1891.38786-.3686.58659-.5481.577-.5321,1.15713-1.06418,1.74372-1.58666.00642-.00642.016-.01283.02244-.01923q.375-.33657.75006-.66351l.00961-.00963c.00642-.00319.00962-.00961.016-.01281.18913-.16669.38144-.33336.57057-.5s.38464-.33016.57375-.49362c.18271-.16348.36862-.32374.56094-.4808q.55293-.48081,1.12188-.94559c.02564-.02244.05129-.04488.07692-.06411.21478-.1795.43274-.36221.65391-.54171.2404-.19552.47759-.391.718-.58659s.484-.38783.72441-.58017c.03526-.032.07372-.05769.109-.08974a1.12538,1.12538,0,0,0,.09616-.07692c.44555-.35261.89431-.70519,1.34626-1.05137.26284-.20515.52568-.40709.78853-.609.31091-.23719.625-.47439.936-.70837.218-.16348.43913-.327.65709-.49043.02565-.01923.05451-.03847.08014-.06091q.73564-.5433,1.48408-1.0802c.20515-.14744.4167-.2981.62826-.44874.31733-.22759.64107-.452.96161-.67635.32375-.22757.64749-.44874.97122-.66991q1.7886-1.23086,3.62847-2.404c.25324-.16348.50966-.327.76609-.48722.03846-.02244.07372-.04488.11218-.07051.03527-.02244.07053-.04488.1122-.06732.10257-.06732.20515-.13141.31091-.19553.33337-.20835.66672-.41669,1.00328-.61863.234-.14745.47441-.2917.71481-.43594.03525-.02242.06409-.04166.09616-.06089.13783-.08334.27886-.16347.41348-.24682.13143-.08013.26284-.15706.39746-.23719.13464-.07693.26606-.15706.40068-.234.23719-.13783.4744-.27887.70839-.4167.04809-.02565.09616-.05128.14424-.08013.15706-.09295.31412-.18271.47439-.27245.07372-.03846.141-.08334.21476-.12181.34939-.20194.69876-.39746,1.04816-.59619.02244-.01283.04488-.02565.0705-.03846.35582-.19875.71481-.39748,1.077-.593.4776-.26284.96161-.52247,1.44563-.7789.266-.14424.53529-.28528.80453-.42632.03846-.02244.08013-.04167.11859-.0609.06732-.03525.13464-.07051.19875-.10576.30131-.15387.5994-.30772.8975-.46158q1.08663-.54811,2.17644-1.08341a.96446.96446,0,0,0,.09936-.0513c.5321-.25642,1.06419-.51285,1.60269-.76288.218-.10257.44234-.20512.66351-.31091.33016-.15066.66351-.30451.99686-.45515a.32061.32061,0,0,1,.04809-.02244q.86063-.38946,1.7277-.7693.86062-.375,1.73088-.74044c.02565-.0096.0513-.02565.07693-.03525a.38526.38526,0,0,1,.04488-.016c.05448-.02244.10257-.04808.15706-.06731.33016-.13783.6603-.27566.99046-.4103.03526-.016.07693-.02884.11218-.04486.30452-.125.60582-.24682.91034-.36863.04488-.016.08334-.032.1282-.04806.2404-.09618.484-.19876.73083-.2917.04167-.016.07693-.02884.1186-.04488.16989-.0673.33656-.13142.50324-.19553.38465-.14745.7693-.29488,1.15714-.43913.05129-.02244.109-.04167.16347-.06411.11218-.04167.22438-.08334.33656-.12181.44234-.16666.88469-.32693,1.33024-.484.45515-.16667.91031-.33014,1.36867-.484a.72066.72066,0,0,1,.077-.02565c.28526-.10258.577-.20194.86543-.30131.00642-.00321.01284-.00321.01923-.00641.29812-.09937.59622-.19874.8911-.29489.09616-.03526.19553-.06411.2981-.09616.13143-.04809.266-.08976.39746-.13464q.803-.25962,1.6091-.50964c.30773-.09616.62184-.19231.93276-.28207.03206-.01282.06411-.02244.09617-.032.10256-.03207.20834-.06411.31091-.093.04167-.016.08335-.02563.125-.03846.10578-.03526.21154-.06411.31412-.09616.016-.00642.03525-.00962.05448-.016.24682-.07374.49685-.14746.74686-.21477.04488-.01282.09616-.02884.141-.04166.24361-.07373.49043-.14424.734-.20835.33978-.09616.68274-.19553,1.02251-.28529.31093-.08653.625-.17308.93919-.25321.0064-.00321.01281-.00321.01923-.00642.14743-.04167.29489-.08013.44553-.11539l.00963-.00321c.40388-.109.81094-.21475,1.218-.31412.07372-.01923.14745-.03525.22117-.05769.14425-.03527.28849-.07374.43593-.10578l.46157-.11539c.20194-.04809.39746-.09618.59619-.141.06732-.016.13785-.02885.20515-.04809.25324-.0609.50646-.1218.75967-.1795.51927-.11859,1.03854-.23719,1.561-.35258.093-.01923.18271-.03846.27568-.0609.4872-.10257.97763-.20515,1.468-.30451.41351-.08656.8302-.1699,1.24689-.25.04168-.01282.08976-.01923.13144-.02884.22436-.04167.44232-.08334.66991-.125.31412-.06091.63146-.1186.94237-.17309.22438-.04167.452-.08013.67633-.1218.26926-.04488.5385-.093.80776-.13783.26926-.04809.54492-.09618.81416-.13783l.1731-.02886c.25963-.04488.51606-.08334.77569-.125.07372-.00961.15064-.02244.22438-.032.1282-.02244.25322-.04168.37823-.06091q.78853-.1202,1.58666-.23079c.54811-.07693,1.09944-.15386,1.65075-.22118.04167-.00318.07693-.01281.1186-.016.43913-.05448.88147-.109,1.32382-.16027.0545-.0096.1122-.01281.16668-.01923.14746-.016.29489-.03525.44555-.04807.016-.0032.03526-.0032.05449-.00641.80455-.09295,1.6187-.17629,2.43288-.25.08974-.01282.17629-.01923.266-.02563.19554-.01923.39746-.03846.593-.05451.51285-.04486,1.02572-.08653,1.54178-.125.51285-.03846,1.02572-.077,1.53858-.109.45836-.03205.91673-.0577,1.37509-.08014.20194-.01281.40388-.02243.60582-.03525q.99527-.04809,1.99054-.08655c.41027-.016.82378-.02565,1.23726-.03846.24041-.00642.484-.00961.72442-.016.2468-.00641.49683-.00962.74686-.01281.12178-.00321.2468-.00963.37181-.00963s.24682,0,.375-.0032c.51287-.00642,1.02893-.00961,1.545-.00961a136.97106,136.97106,0,0,1,29.70093,3.23741l.13462.02886A2.03284,2.03284,0,0,1,391.80032,367.42811Z" transform="translate(-223.80071 -362.19055)"/>
    <path class="cls-2" d="M368.12549,559.359c-.0609-.00321-.125-.00642-.18591-.00642a.27527.27527,0,0,1,.05129-.00321A.94958.94958,0,0,1,368.12549,559.359Z" transform="translate(-223.80071 -362.19055)"/>
    <path class="cls-4" d="M496.94911,498.7936A136.63269,136.63269,0,0,1,360.31723,635.4255q-4.02436,0-7.98458-.23078h-.00321c-.03846,0-.07692-.00321-.11538-.00641a1.08519,1.08519,0,0,1-.218-2.11237l.00961-.00321c.0513-.00958.10257-.02242.15387-.032a40.49131,40.49131,0,0,0,31.28757-39.426q0-.375-.00963-.75008c-.00319-.33979-.01281-.67633-.032-1.00966-.0032-.09938-.00641-.20519-.01281-.30453-.01283-.27245-.02886-.54494-.04809-.82056q-.02884-.41354-.06732-.827c-.01281-.15065-.02563-.30129-.04486-.45514-.02244-.2404-.04809-.48081-.08013-.72121-.01923-.16668-.03847-.33016-.0577-.48722-.02565-.18273-.05129-.359-.07694-.53852-.07051-.4776-.14744-.94881-.234-1.42-.04807-.2532-.09295-.50323-.14745-.75326-.02563-.12822-.05128-.25961-.08014-.391q-.03843-.19233-.08653-.38467c-.07692-.359-.16027-.70837-.25-1.05775-.06091-.24361-.12181-.48722-.18911-.72762-.04809-.16985-.093-.33975-.14425-.50964-.05448-.20836-.11859-.41672-.1827-.62182a.42781.42781,0,0,1-.016-.06093c-.1218-.39425-.24682-.78533-.38144-1.17317-.13462-.4103-.28207-.81738-.43273-1.21806s-.31091-.80134-.47439-1.1988q-.47118-1.14908-1.0193-2.26617c-.06091-.12823-.12181-.2532-.18592-.37826-.19231-.38462-.391-.76925-.5994-1.1475-.08334-.16348-.17308-.32375-.26284-.484-.06091-.10576-.12181-.21477-.18271-.32053q-.09614-.17309-.20192-.34617a.21575.21575,0,0,0-.01923-.03846c-.13144-.22119-.25966-.44234-.39749-.66349-.09936-.16669-.20194-.327-.31091-.49364-.09936-.16348-.20515-.33016-.31732-.49364-.04809-.08334-.10258-.16348-.15706-.24682q-.44718-.67308-.91675-1.327c-.09937-.13468-.19553-.26928-.2981-.40388-.09616-.13464-.19552-.26607-.30131-.40067-.3013-.40708-.61863-.80776-.94558-1.1988q-.14424-.18276-.2981-.36546c-.109-.125-.21475-.25319-.32374-.37821q-.96162-1.12031-2.00336-2.16362l-.25-.25c-.22758-.22436-.45515-.44234-.68916-.66032-.19873-.19228-.40386-.38142-.61221-.56732-.22759-.20515-.45516-.41029-.686-.60582-.19873-.1731-.39746-.33978-.59619-.50647q-.702-.58656-1.4296-1.13788l-.01281-.00642c-.03526-.02883-.07372-.0545-.109-.08334a1.08419,1.08419,0,0,1,.66672-1.89759c.0609,0,.125.00321.18591.00642.28529.00962.57055.01925.85583.02567.5994.016,1.1988.02562,1.80141.032.36863.00321.73084.00642,1.09623.00642.86866,0,1.73091-.00963,2.59315-.02884.41349-.00962.827-.02246,1.24048-.04171.15385-.00321.30451-.00959.45836-.016.36863-.01284.74365-.02884,1.11227-.04809.77891-.04167,1.55781-.08655,2.33029-.14423.18271-.01283.36542-.02567.54813-.04167q1.14912-.08656,2.29184-.20515c.19873-.016.40067-.03525.59619-.06088h.00961c.20836-.01925.4103-.0385.61544-.06734.34938-.03525.69556-.07372,1.04494-.1218.26284-.02563.52247-.06089.78531-.09618.25964-.02884.52248-.0673.78211-.10256.30452-.04167.60582-.08013.90713-.12822.1795-.02242.359-.048.5385-.08013.1795-.02563.36221-.05126.5417-.08334q1.12989-.17309,2.25657-.375c.36542-.06409.73725-.13143,1.10265-.20515.18592-.032.36863-.06733.55775-.10576.28526-.0545.56734-.109.85583-.16989.28207-.05772.57054-.11222.85262-.17631.28528-.06089.56735-.12181.84943-.18273.28528-.06088.56735-.12818.84941-.19228.36862-.08334.734-.16989,1.10264-.25965.19873-.04488.39748-.09618.5994-.14743.7084-.17311,1.41679-.35583,2.11877-.54811.17629-.04492.35258-.093.53208-.14426.26605-.07055.53529-.14748.80134-.2244.32054-.08972.64107-.17948.9584-.27562.20194-.05771.40388-.11543.60582-.17952.32374-.09618.6507-.19235.97442-.29808.41672-.125.827-.25965,1.23729-.39108.70516-.22757,1.40395-.4648,2.10593-.71158.27565-.093.5481-.18911.82376-.28849.50324-.17631,1.00649-.36542,1.50973-.55452.28208-.1026.56415-.20836.84622-.32054q.89912-.34135,1.7886-.70837c.15065-.05772.2981-.11864.44553-.17952q1.07221-.4423,2.12837-.90394c.32375-.141.64749-.28524.968-.42947.452-.202.9007-.40709,1.34944-.61865.95522-.44555,1.91041-.9071,2.85279-1.3847.25963-.12826.51926-.25965.77569-.3975q.98565-.5,1.95849-1.02891c.72121-.39109,1.44242-.79176,2.15721-1.202.20515-.11539.41348-.2372.61863-.35579.23719-.13785.47118-.27249.702-.4103.38464-.22757.76608-.45193,1.14431-.68916.63145-.38142,1.25329-.77251,1.87834-1.16676.36221-.23078.72121-.46476,1.08342-.702.69556-.452,1.38472-.91993,2.07067-1.39115.23078-.15706.46157-.31412.68914-.4776.27566-.1891.54813-.38784.82378-.58336.42311-.30132.83981-.60261,1.2565-.91352.45837-.33658.91675-.67633,1.3687-1.0257.21154-.15706.41669-.31733.62184-.48081.37823-.29169.75646-.58339,1.1283-.88468.218-.16989.43271-.343.64747-.5161s.42952-.34937.64107-.52564c.16989-.13785.33977-.27891.51287-.42313.33335-.27245.6603-.55453.99045-.8366.17631-.14426.34618-.2917.51607-.44234.15386-.13139.31412-.27245.47118-.4103.63787-.55452,1.26613-1.12188,1.89118-1.69565.23077-.20511.45515-.41667.68274-.63145.27245-.25323.54811-.51285.82057-.77567.34938-.33337.69556-.66674,1.04175-1.0097a1.91744,1.91744,0,0,0,.16346-.16027c.29811-.28849.58979-.58335.88147-.87826.34939-.34617.69237-.702,1.02893-1.05458.25-.25641.49683-.51285.74044-.7725q1.14913-1.21645,2.25978-2.46812c.28207-.31091.56094-.63145.83661-.952.48081-.55453.9584-1.11546,1.42637-1.68282.1122-.13143.218-.25645.32054-.38784.10578-.12826.21477-.25644.31735-.38466.19231-.2372.38463-.47439.57375-.71159.25643-.32053.51285-.64428.76288-.968.4199-.5321.83018-1.06738,1.23727-1.61231.22117-.2917.44234-.58978.6603-.89106.13783-.18594.27566-.37184.4103-.55773.13462-.18594.27245-.37825.40386-.56415q.26446-.36541.51928-.73083c.17309-.24361.343-.49043.51285-.73725q2.31748-3.36083,4.37853-6.91079.2356-.399.46157-.79813c.56094-.97761,1.09944-1.96485,1.62512-2.965.19552-.36217.38144-.72442.56736-1.08659q1.12027-2.17806,2.13476-4.41379c.1122-.24361.22117-.48723.33016-.734.42311-.94236.83339-1.89756,1.22125-2.856.03525-.08013.06732-.15706.09615-.234.28529-.68595.55773-1.37828.82058-2.07065.06732-.17311.13462-.34938.20194-.52569.07052-.19552.14424-.38784.21475-.58019.07374-.19548.14745-.38784.21477-.58336.16346-.43592.32054-.87827.468-1.3174a.057.057,0,0,0,.01284-.032c.07051-.20515.14422-.4103.21154-.61866a1.09606,1.09606,0,0,0,.05128-.14422c.0609-.17952.125-.36221.18271-.5449.19233-.56736.375-1.13792.55454-1.71169.13783-.42951.27245-.859.39746-1.28857.08974-.28845.17629-.58015.25643-.86864.09936-.32374.19231-.6507.28207-.97444.09295-.327.18271-.6507.26926-.97765.11218-.41989.22757-.83977.33335-1.2629a.23627.23627,0,0,0,.01282-.04484c.05129-.202.10257-.40067.15066-.60265a.31812.31812,0,0,0,.01923-.08334c.08653-.33016.16667-.66029.24361-.99045.09616-.40067.19232-.80455.28208-1.2116q.23077-1.00011.43592-2.00977c.03846-.18272.08013-.37183.11218-.55773.03846-.18272.07693-.36545.109-.55135.03846-.1859.07372-.36862.109-.55452.13143-.69879.25964-1.40395.375-2.10912.04486-.23077.08014-.46476.1186-.69878v-.00959c.08974-.52891.16988-1.0642.24359-1.59631a1.33132,1.33132,0,0,0,.02565-.16345c.04167-.27247.08014-.54492.11539-.82378.04167-.27247.07374-.54492.10578-.82379.03847-.26284.07053-.52247.09937-.78531.07053-.57376.13783-1.14753.19552-1.72449v-.00961c.02244-.20835.04809-.42311.06411-.63146q.03366-.31732.0577-.63466c.04488-.42311.08013-.84943.1122-1.27254.02883-.34937.05448-.702.08013-1.05456q.03366-.45677.05769-.91352c.01282-.1731.02565-.34939.032-.52248.01283-.22758.02565-.45517.03527-.67953q.06729-1.27414.09616-2.55469c.0064-.23719.016-.468.016-.70518.00961-.31091.01282-.62184.01282-.92955.00641-.38464.00962-.76608.00962-1.14752a106.006,106.006,0,0,0-2.08028-20.95989,1.91558,1.91558,0,0,1-.04167-.41028,2.04226,2.04226,0,0,1,3.83682-.97123c.03846.0609.07052.1218.10578.1827.19873.35259.39425.702.58977,1.05456.13144.23722.26285.47762.39107.71481.13462.234.26605.47439.391.71479.22438.41349.44235.8302.66352,1.24689.14745.27566.28849.55453.43273.83339.17309.33016.343.66351.50644.99687.218.42311.42952.84943.64107,1.27574.06732.13783.13785.27566.20194.41349.07053.13783.13783.27886.20194.4135.21156.43914.42632.88467.63468,1.33022.21154.44234.41669.8911.62184,1.33663.08974.19554.1795.39427.26924.5898q.23078.50964.46157,1.02893c.15385.35579.31412.71479.468,1.077.17308.39426.33977.79172.50643,1.18918.1795.42953.36221.86225.53852,1.295s.34938.86864.52246,1.30459c.13785.33335.26605.6667.39427,1.00007.15706.40388.31091.80455.46158,1.20841l.37181.99047c.125.34618.25324.69556.375,1.04816.08655.24361.1731.4872.25965.7276.109.30131.21155.60261.31412.90071.141.41029.27887.82057.4167,1.23408.13783.41027.27245.82378.40709,1.23726s.26284.827.39425,1.24369c.10578.33335.20515.66672.30451,1.00007.109.33335.20834.66672.30131,1.00007.06411.20194.1218.40709.1795.609q.73083,2.505,1.35907,5.04845c.109.4263.21155.84941.31091,1.27573.10257.42632.20515.85582.30131,1.28214q.53852,2.356.99367,4.73754c.04167.21153.08334.4263.1186.64108.016.08334.032.16989.04809.25323.09294.48722.1795.97761.26282,1.47125.01923.11218.03846.22115.0545.33013.04486.24682.08335.49043.125.73725.05771.33016.109.66032.16027.99048.06411.38463.11861.77247.17631,1.1603.05769.36863.109.74046.16027,1.10909.01281.08972.02562.17948.03525.26924.0609.41992.1186.843.16987,1.2661q.17311,1.33184.31735,2.66368c.04807.44555.09295.8911.13783,1.33661.04486.4488.08653.89431.125,1.33986.03207.33016.05772.66028.08335.99365.02565.2885.04809.57378.06732.86548.02244.28528.04488.57373.06411.86222Q496.94431,493.99839,496.94911,498.7936Z" transform="translate(-223.80071 -362.19055)"/>
    <path class="cls-5" d="M467.30911,443.376q0,2.856-.15385,5.6735a104.44,104.44,0,0,1-100.80874,98.706.54274.54274,0,0,1-.07374.00321h-.016a2.04009,2.04009,0,0,1-1.64435-3.22783.0434.0434,0,0,1,.00962-.01279c.0673-.08013.13462-.1571.19873-.23723l.00961-.00959a104.12738,104.12738,0,0,0,20.04637-36.897,24.7814,24.7814,0,0,0,.78211-2.70851c.00318-.00963.00318-.016.00639-.02567a26.2089,26.2089,0,0,0-.51606-13.61c-1.30137-4.17018-3.84964-8.65769-10.29242-13.80232l-.00963-.00963a55.41909,55.41909,0,0,1,36.74632-96.911q2.154,0,4.27275.16348a55.09066,55.09066,0,0,1,27.80655,10.06485.1322.1322,0,0,1,.03525.02244q2.82232,2.17322,5.52926,4.50033a55.41907,55.41907,0,0,1,15.22548,24.00177,104.29077,104.29077,0,0,1,2.55148,16.40827Q467.30269,439.38694,467.30911,443.376Z" transform="translate(-223.80071 -362.19055)"/>
  </g>
</svg>
